<?xml version="1.0" standalone="no"?>
<!DOCTYPE svg PUBLIC "-//W3C//DTD SVG 20010904//EN"
 "http://www.w3.org/TR/2001/REC-SVG-20010904/DTD/svg10.dtd">
<svg version="1.0" xmlns="http://www.w3.org/2000/svg"
 width="800.000000pt" height="800.000000pt" viewBox="0 0 800.000000 800.000000"
 preserveAspectRatio="xMidYMid meet">

<g transform="translate(0.000000,800.000000) scale(0.100000,-0.100000)"
fill="#000000" stroke="none">
<path d="M2126 6880 c-365 -27 -675 -107 -973 -250 -264 -127 -506 -306 -643
-477 l-60 -74 0 -2401 0 -2400 26 -49 c30 -55 79 -92 142 -109 55 -14 103 -5
178 35 259 138 637 232 1114 276 165 16 668 16 845 0 367 -32 694 -100 948
-199 l77 -30 0 2642 0 2641 -88 51 c-301 178 -630 286 -997 329 -161 18 -423
25 -569 15z"/>
<path d="M5520 6884 c-490 -33 -862 -140 -1217 -351 l-93 -55 0 -2640 c0
-2510 1 -2640 18 -2633 511 207 1190 285 1917 219 406 -36 767 -125 1016 -249
58 -28 122 -55 142 -59 81 -15 178 34 221 113 l26 49 0 2386 c0 1983 -2 2392
-14 2419 -21 52 -119 160 -224 247 -353 296 -787 477 -1283 534 -129 15 -414
26 -509 20z"/>
</g>
</svg>
