<?xml version="1.0" standalone="no"?>
<!DOCTYPE svg PUBLIC "-//W3C//DTD SVG 20010904//EN"
 "http://www.w3.org/TR/2001/REC-SVG-20010904/DTD/svg10.dtd">
<svg version="1.0" xmlns="http://www.w3.org/2000/svg"
 width="500.000000pt" height="500.000000pt" viewBox="0 0 500.000000 500.000000"
 preserveAspectRatio="xMidYMid meet">

<g transform="translate(0.000000,500.000000) scale(0.100000,-0.100000)"
fill="#000000" stroke="none">
<path d="M845 4354 c-16 -1 -110 -8 -207 -15 l-178 -12 0 -163 0 -164 -230 0
-230 0 0 -1680 0 -1680 1098 0 1097 0 122 120 122 120 59 0 58 0 125 -120 124
-119 1098 -1 1097 0 0 1680 0 1680 -230 0 -230 0 -2 163 -3 162 -65 7 c-685
68 -1247 0 -1873 -229 l-97 -36 -83 31 c-370 140 -763 226 -1147 252 -132 9
-349 11 -425 4z m1800 -1694 l0 -1155 -145 0 -145 0 -3 1135 c-1 624 0 1145 3
1158 5 22 7 23 148 20 l142 -3 0 -1155z m-2187 -342 l-3 -1393 -81 -3 -81 -3
-6 122 c-9 157 -9 1249 0 2047 l6 622 84 0 83 0 -2 -1392z m4256 1255 c8 -163
7 -2390 -1 -2546 l-6 -108 -81 3 -81 3 -3 1393 -2 1392 83 0 84 0 7 -137z
m-2414 -2356 c127 -8 247 -10 315 -5 163 12 494 11 625 -2 274 -26 492 -69
755 -151 174 -53 365 -122 365 -131 0 -5 -323 -8 -717 -8 l-718 0 -125 120
-125 119 -175 0 -175 0 -125 -119 -125 -120 -717 0 c-395 0 -718 4 -718 8 0 9
177 73 365 131 287 89 583 144 873 160 195 11 196 11 422 -2z"/>
</g>
</svg>
