<?xml version="1.0" standalone="no"?>
<!DOCTYPE svg PUBLIC "-//W3C//DTD SVG 20010904//EN"
 "http://www.w3.org/TR/2001/REC-SVG-20010904/DTD/svg10.dtd">
<svg version="1.0" xmlns="http://www.w3.org/2000/svg"
 width="500.000000pt" height="500.000000pt" viewBox="0 0 500.000000 500.000000"
 preserveAspectRatio="xMidYMid meet">

<g transform="translate(0.000000,500.000000) scale(0.100000,-0.100000)"
fill="#000000" stroke="none">
<path d="M845 4354 c-16 -1 -110 -8 -207 -15 l-178 -12 0 -163 0 -164 -230 0
-230 0 0 -1680 0 -1680 1098 0 1097 0 122 120 122 120 60 0 59 0 124 -120 123
-119 1098 -1 1097 0 0 1680 0 1680 -230 0 -230 0 -2 163 -3 162 -65 7 c-36 3
-166 12 -290 19 -534 29 -1050 -52 -1583 -248 l-97 -36 -83 31 c-360 136 -770
226 -1142 252 -136 9 -353 11 -430 4z m1785 -1699 l0 -1155 -130 0 -130 0 0
1155 0 1155 130 0 130 0 0 -1155z m-2172 -337 l-3 -1393 -81 -3 -81 -3 -6 83
c-9 109 -9 1835 0 2326 l6 382 84 0 83 0 -2 -1392z m4255 1295 c9 -128 9
-2448 0 -2587 l-6 -107 -81 3 -81 3 -3 1393 -2 1392 83 0 84 0 6 -97z m-2473
-2394 c199 -12 313 -13 527 -1 304 18 693 -19 988 -92 225 -56 605 -180 605
-198 0 -4 -323 -8 -717 -8 l-718 0 -125 120 -125 119 -175 0 -175 0 -125 -119
-125 -120 -717 0 c-395 0 -718 4 -718 8 0 9 177 73 365 131 331 103 643 154
1035 169 19 1 109 -3 200 -9z"/>
</g>
</svg>
