<?xml version="1.0" standalone="no"?>
<!DOCTYPE svg PUBLIC "-//W3C//DTD SVG 20010904//EN"
 "http://www.w3.org/TR/2001/REC-SVG-20010904/DTD/svg10.dtd">
<svg version="1.0" xmlns="http://www.w3.org/2000/svg"
 width="512.000000pt" height="512.000000pt" viewBox="0 0 512.000000 512.000000"
 preserveAspectRatio="xMidYMid meet">

<g transform="translate(0.000000,512.000000) scale(0.100000,-0.100000)"
fill="#000000" stroke="none">
<path d="M2475 3803 c-164 -37 -288 -152 -330 -307 -32 -119 -6 -193 76 -218
32 -9 43 -8 74 8 44 23 61 51 76 129 33 170 242 208 326 60 44 -78 22 -156
-93 -334 -90 -138 -143 -201 -166 -201 -33 0 -1888 -648 -1936 -676 -63 -37
-144 -124 -176 -189 -118 -242 -21 -547 211 -663 32 -16 82 -35 111 -41 38 -8
576 -11 1925 -11 2041 0 1922 -3 2039 56 75 38 148 116 191 204 45 92 61 170
54 275 -12 193 -126 341 -316 414 -42 15 -458 160 -926 321 -467 161 -852 295
-854 296 -2 2 21 43 52 91 72 115 133 241 148 310 34 150 -58 342 -205 428
-74 43 -203 66 -281 48z m403 -1172 c757 -262 1591 -556 1623 -571 54 -28 98
-79 114 -134 19 -62 19 -90 1 -150 -21 -70 -60 -119 -119 -152 l-52 -29 -1875
0 c-1810 0 -1876 1 -1910 19 -110 58 -163 183 -130 304 15 57 77 124 138 150
38 16 1124 397 1717 602 87 30 158 49 188 49 35 1 115 -22 305 -88z"/>
</g>
</svg>
