<?xml version="1.0" standalone="no"?>
<!DOCTYPE svg PUBLIC "-//W3C//DTD SVG 20010904//EN"
 "http://www.w3.org/TR/2001/REC-SVG-20010904/DTD/svg10.dtd">
<svg version="1.0" xmlns="http://www.w3.org/2000/svg"
 width="800.000000pt" height="800.000000pt" viewBox="0 0 800.000000 800.000000"
 preserveAspectRatio="xMidYMid meet">

<g transform="translate(0.000000,800.000000) scale(0.100000,-0.100000)"
fill="#000000" stroke="none">
<path d="M3695 7333 c-334 -28 -661 -180 -900 -418 -118 -118 -207 -241 -278
-384 -50 -100 -52 -107 -52 -185 1 -93 14 -127 78 -194 104 -107 280 -107 384
0 22 24 61 84 87 133 129 253 354 426 625 480 125 26 317 17 431 -20 318 -101
551 -356 615 -674 13 -64 16 -117 13 -220 -4 -120 -9 -147 -38 -235 -58 -173
-165 -324 -303 -430 -88 -68 -180 -103 -295 -115 -48 -5 -113 -19 -144 -31
-128 -48 -258 -164 -316 -283 -54 -109 -62 -160 -62 -387 l0 -207 -1646 -1148
c-906 -632 -1668 -1170 -1695 -1197 -261 -261 -263 -687 -5 -948 110 -111 237
-176 391 -200 49 -7 1092 -10 3460 -8 3232 3 3393 4 3450 21 126 38 204 85
300 182 99 98 138 162 177 285 34 111 32 283 -5 395 -15 44 -43 109 -64 144
-86 145 -11 95 -1988 1335 l-1820 1142 0 175 0 174 60 7 c141 18 292 68 404
133 293 172 522 462 629 796 53 163 66 256 66 444 -1 246 -40 418 -144 630
-75 154 -143 249 -275 381 -202 204 -408 322 -680 389 -154 37 -311 51 -460
38z"/>
</g>
</svg>
