<?xml version="1.0" standalone="no"?>
<!DOCTYPE svg PUBLIC "-//W3C//DTD SVG 20010904//EN"
 "http://www.w3.org/TR/2001/REC-SVG-20010904/DTD/svg10.dtd">
<svg version="1.0" xmlns="http://www.w3.org/2000/svg"
 width="800.000000pt" height="800.000000pt" viewBox="0 0 800.000000 800.000000"
 preserveAspectRatio="xMidYMid meet">

<g transform="translate(0.000000,800.000000) scale(0.100000,-0.100000)"
fill="#000000" stroke="none">
<path d="M2600 7235 c-242 -48 -506 -259 -616 -490 -52 -108 -67 -184 -61
-295 6 -117 32 -195 97 -293 44 -68 151 -179 230 -240 l35 -27 -494 0 c-361 0
-505 -3 -535 -12 -25 -8 -61 -32 -93 -63 -82 -80 -83 -85 -83 -577 l0 -418
2920 0 2920 0 0 418 c0 492 -1 497 -83 577 -32 31 -68 55 -93 63 -30 9 -174
12 -535 12 l-494 0 35 27 c139 107 259 257 300 375 31 88 38 232 16 318 -36
142 -118 273 -247 395 -286 269 -617 317 -960 138 -255 -133 -526 -420 -777
-821 -39 -62 -73 -118 -76 -125 -4 -9 -8 -9 -11 -1 -3 6 -41 67 -83 135 -426
679 -878 991 -1312 904z m276 -519 c155 -71 336 -246 507 -491 68 -98 167
-255 167 -265 0 -13 -224 39 -395 90 -290 87 -506 187 -638 296 -121 99 -125
153 -20 264 132 141 238 170 379 106z m2495 4 c55 -29 165 -134 190 -182 26
-51 24 -78 -10 -125 -83 -115 -358 -259 -686 -358 -121 -37 -407 -106 -414
-99 -11 10 187 306 282 423 153 187 309 314 442 358 54 18 142 10 196 -17z"/>
<path d="M1420 2820 c0 -1745 -6 -1607 68 -1684 20 -21 55 -47 77 -57 39 -18
122 -19 2435 -19 2298 0 2397 1 2435 19 51 23 102 74 126 126 18 38 19 102 19
1613 l0 1572 -2580 0 -2580 0 0 -1570z"/>
</g>
</svg>
