<?xml version="1.0" standalone="no"?>
<!DOCTYPE svg PUBLIC "-//W3C//DTD SVG 20010904//EN"
 "http://www.w3.org/TR/2001/REC-SVG-20010904/DTD/svg10.dtd">
<svg version="1.0" xmlns="http://www.w3.org/2000/svg"
 width="800.000000pt" height="800.000000pt" viewBox="0 0 800.000000 800.000000"
 preserveAspectRatio="xMidYMid meet">

<g transform="translate(0.000000,800.000000) scale(0.100000,-0.100000)"
fill="#000000" stroke="none">
<path d="M3801 7185 c-211 -48 -387 -147 -526 -296 -163 -175 -252 -386 -262
-619 -5 -115 -4 -129 17 -173 47 -99 166 -167 267 -152 58 8 122 66 152 135
13 30 27 98 36 171 19 162 48 224 153 329 223 222 485 227 701 11 171 -171
224 -379 140 -550 -82 -168 -300 -300 -497 -301 -86 0 -157 -49 -198 -135 -24
-50 -24 -52 -24 -412 0 -333 -1 -364 -17 -379 -10 -9 -121 -81 -248 -161 -287
-182 -940 -606 -1905 -1238 -1224 -802 -1353 -888 -1381 -926 -78 -104 -145
-250 -181 -396 -29 -116 -31 -309 -4 -397 78 -259 289 -406 642 -446 71 -8
1020 -10 3399 -8 l3300 3 95 26 c280 78 439 225 500 464 14 56 20 111 20 196
0 172 -31 311 -102 453 -64 127 -65 128 -363 324 -1453 959 -2850 1868 -3127
2038 l-98 59 0 222 0 221 63 21 c226 76 443 284 544 524 79 188 103 414 64
605 -78 378 -341 664 -711 772 -98 29 -351 37 -449 15z"/>
</g>
</svg>
