<?xml version="1.0" standalone="no"?>
<!DOCTYPE svg PUBLIC "-//W3C//DTD SVG 20010904//EN"
 "http://www.w3.org/TR/2001/REC-SVG-20010904/DTD/svg10.dtd">
<svg version="1.0" xmlns="http://www.w3.org/2000/svg"
 width="512.000000pt" height="512.000000pt" viewBox="0 0 512.000000 512.000000"
 preserveAspectRatio="xMidYMid meet">

<g transform="translate(0.000000,512.000000) scale(0.100000,-0.100000)"
fill="#000000" stroke="none">
<path d="M2441 4765 c-88 -20 -185 -67 -250 -123 -125 -105 -1928 -1821 -1953
-1858 -114 -168 -46 -404 141 -492 44 -20 74 -26 167 -30 l114 -5 0 -901 c0
-1005 -4 -944 69 -993 l34 -23 648 0 649 0 0 573 c0 623 2 640 58 755 38 79
142 181 224 221 140 66 302 64 445 -6 129 -63 236 -205 262 -348 7 -38 11
-260 11 -627 l0 -568 654 2 c644 3 655 3 683 24 15 11 36 36 45 55 17 32 18
97 18 935 l0 901 114 5 c93 4 123 10 169 31 182 83 252 319 144 485 -20 31
-1798 1724 -1941 1849 -66 58 -149 106 -223 129 -71 22 -206 26 -282 9z"/>
</g>
</svg>
