<?xml version="1.0" standalone="no"?>
<!DOCTYPE svg PUBLIC "-//W3C//DTD SVG 20010904//EN"
 "http://www.w3.org/TR/2001/REC-SVG-20010904/DTD/svg10.dtd">
<svg version="1.0" xmlns="http://www.w3.org/2000/svg"
 width="512.000000pt" height="512.000000pt" viewBox="0 0 512.000000 512.000000"
 preserveAspectRatio="xMidYMid meet">

<g transform="translate(0.000000,512.000000) scale(0.100000,-0.100000)"
fill="#000000" stroke="none">
<path d="M2441 4765 c-88 -20 -185 -67 -250 -123 -125 -105 -1928 -1821 -1953
-1858 -114 -168 -46 -404 141 -492 44 -20 74 -26 167 -30 l114 -5 0 -901 c0
-1005 -4 -944 69 -993 l34 -23 648 0 649 0 0 573 c0 623 2 640 58 755 38 79
142 181 224 221 140 66 302 64 445 -6 129 -63 236 -205 262 -348 7 -38 11
-260 11 -627 l0 -568 654 2 c644 3 655 3 683 24 15 11 36 36 45 55 17 32 18
97 18 935 l0 901 114 5 c93 4 123 10 169 31 182 83 252 319 144 485 -20 31
-1798 1724 -1941 1849 -66 58 -149 106 -223 129 -71 22 -206 26 -282 9z m240
-292 c25 -11 79 -51 119 -89 756 -710 1847 -1751 1854 -1769 7 -17 5 -30 -7
-49 -17 -25 -17 -25 -196 -28 -201 -3 -218 -9 -253 -79 -17 -32 -18 -97 -18
-936 l0 -903 -419 0 -419 0 -5 478 c-4 510 -3 503 -58 641 -118 296 -454 504
-768 476 -306 -27 -562 -209 -669 -476 -56 -137 -55 -130 -59 -642 l-4 -477
-420 0 -419 0 0 903 c0 1006 4 945 -69 994 -32 22 -44 23 -207 23 l-174 0 -16
26 c-13 19 -15 32 -8 48 5 13 396 389 869 836 473 448 906 858 963 911 123
117 171 141 272 136 36 -2 86 -13 111 -24z"/>
</g>
</svg>
