<?xml version="1.0" standalone="no"?>
<!DOCTYPE svg PUBLIC "-//W3C//DTD SVG 20010904//EN"
 "http://www.w3.org/TR/2001/REC-SVG-20010904/DTD/svg10.dtd">
<svg version="1.0" xmlns="http://www.w3.org/2000/svg"
 width="512.000000pt" height="512.000000pt" viewBox="0 0 512.000000 512.000000"
 preserveAspectRatio="xMidYMid meet">

<g transform="translate(0.000000,512.000000) scale(0.100000,-0.100000)"
fill="#000000" stroke="none">
<path d="M2495 4546 c-35 -15 -82 -67 -90 -99 -3 -12 -4 -220 -3 -462 l3 -440
23 -33 c70 -97 219 -86 271 22 20 40 21 59 21 370 l0 328 48 -6 c186 -26 348
-75 517 -155 486 -232 826 -680 927 -1220 30 -161 30 -416 0 -581 -175 -961
-1126 -1576 -2065 -1335 -438 112 -815 399 -1041 791 -373 646 -274 1446 248
2002 78 83 86 98 86 160 0 87 -66 154 -154 154 -61 0 -90 -18 -181 -114 -569
-593 -706 -1495 -341 -2243 485 -993 1684 -1406 2671 -921 349 171 638 436
837 766 322 534 375 1192 142 1772 -217 542 -662 964 -1216 1152 -239 82 -615
131 -703 92z"/>
<path d="M1648 3503 c-44 -28 -60 -82 -36 -126 20 -38 720 -1010 750 -1043 17
-18 53 -45 81 -60 45 -25 63 -29 132 -29 67 0 89 4 137 28 107 53 162 143 163
267 0 62 -5 85 -27 130 -15 30 -42 69 -60 86 -34 32 -1006 732 -1045 752 -30
16 -63 14 -95 -5z"/>
</g>
</svg>
