<?xml version="1.0" standalone="no"?>
<!DOCTYPE svg PUBLIC "-//W3C//DTD SVG 20010904//EN"
 "http://www.w3.org/TR/2001/REC-SVG-20010904/DTD/svg10.dtd">
<svg version="1.0" xmlns="http://www.w3.org/2000/svg"
 width="512.000000pt" height="512.000000pt" viewBox="0 0 512.000000 512.000000"
 preserveAspectRatio="xMidYMid meet">

<g transform="translate(0.000000,512.000000) scale(0.100000,-0.100000)"
fill="#000000" stroke="none">
<path d="M295 4329 c-74 -26 -156 -79 -195 -129 -17 -21 -45 -69 -63 -107
l-32 -68 -3 -1430 c-2 -1059 0 -1444 8 -1485 24 -112 106 -227 201 -283 103
-61 -43 -57 2349 -57 1437 0 2200 4 2229 11 156 36 287 169 320 327 18 84 15
2851 -3 2917 -40 151 -143 262 -284 305 -63 20 -98 20 -2266 20 -2191 -1
-2201 -1 -2261 -21z m4370 -298 c-17 -15 -343 -304 -725 -642 -382 -338 -825
-729 -984 -869 -158 -140 -298 -260 -310 -266 -45 -24 -84 -26 -128 -6 -24 11
-144 110 -273 224 -126 112 -561 496 -965 853 -404 357 -756 668 -782 692
l-47 43 2122 0 2122 0 -30 -29z m-3620 -877 c342 -302 623 -552 625 -555 4 -5
-1158 -1136 -1359 -1323 l-31 -30 0 1293 0 1293 73 -64 c39 -35 351 -312 692
-614z m3795 -641 l0 -1287 -42 41 c-435 416 -1343 1299 -1343 1305 0 10 1365
1226 1378 1227 4 1 7 -578 7 -1286z m-2735 -298 c116 -102 228 -196 250 -209
70 -42 148 -59 246 -54 136 6 190 38 432 253 l199 177 64 -59 c35 -32 342
-328 682 -658 l619 -600 -1024 -3 c-562 -1 -1483 -1 -2046 0 l-1023 3 181 175
c612 595 1200 1160 1204 1160 4 0 101 -84 216 -185z"/>
</g>
</svg>
