<!DOCTYPE svg PUBLIC "-//W3C//DTD SVG 1.1//EN" "http://www.w3.org/Graphics/SVG/1.1/DTD/svg11.dtd">
<!-- Uploaded to: SVG Repo, www.svgrepo.com, Transformed by: SVG Repo Mixer Tools -->
<svg width="800px" height="800px" viewBox="0 0 24 24" xmlns="http://www.w3.org/2000/svg" fill="#000000">
<g id="SVGRepo_bgCarrier" stroke-width="0"/>
<g id="SVGRepo_tracerCarrier" stroke-linecap="round" stroke-linejoin="round"/>
<g id="SVGRepo_iconCarrier"> <path fill="none" stroke="#000000" stroke-width="1.32" d="M17.5,6.5 L23,9 L23,22 L16,19 L8,22 L1,19 L1,6 L6,8 M16,19 L16,12 M8,22 L8,12 M12,16.2727273 C12,16.2727273 6,11.5 6,7 C6,3.25 9,1 12,1 C15,1 18,3.25 18,7 C18,11.5 12,16.2727273 12,16.2727273 Z M13,7 C13,6.44766667 12.5523333,6 12,6 C11.4476667,6 11,6.44766667 11,7 C11,7.55233333 11.4476667,8 12,8 C12.5523333,8 13,7.55233333 13,7 Z"/> </g>
</svg>