<?xml version="1.0" encoding="UTF-8"?>
<svg version="1.1" xmlns="http://www.w3.org/2000/svg" width="256" height="256">
<path d="M0 0 C28.71 0 57.42 0 87 0 C87.16043524 25.5047462 87.16043524 25.5047462 87.1953125 36.36914062 C87.21923195 43.78502842 87.247541 51.20071883 87.30175781 58.61645508 C87.34519134 64.59461443 87.36913219 70.57256213 87.37950897 76.55086708 C87.38690475 78.83266851 87.4013468 81.11445824 87.42292023 83.39616966 C87.45192029 86.59013353 87.45595732 89.78322076 87.45410156 92.97729492 C87.46848267 93.92244461 87.48286377 94.8675943 87.49768066 95.84138489 C87.47244044 99.85111343 87.26893928 102.45447316 85.47619629 106.09094238 C82.05396414 108.72935937 79.07403212 108.66539098 74.92675781 108.56762695 C73.69196749 108.56853096 73.69196749 108.56853096 72.4322319 108.56945324 C69.77183836 108.56572593 67.11320441 108.5276787 64.453125 108.48828125 C62.80909061 108.48092823 61.16504454 108.47582832 59.52099609 108.47302246 C53.43048535 108.44682641 47.34022532 108.37701994 41.25 108.3125 C20.83125 108.1578125 20.83125 108.1578125 0 108 C0 72.36 0 36.72 0 0 Z " fill="#000000" transform="translate(134,134)"/>
<path d="M0 0 C28.71 0 57.42 0 87 0 C87 35.64 87 71.28 87 108 C73.3875 108.103125 59.775 108.20625 45.75 108.3125 C41.45323242 108.35802002 37.15646484 108.40354004 32.72949219 108.45043945 C27.47900391 108.47302246 27.47900391 108.47302246 25.02032471 108.47721863 C23.30460121 108.48489228 21.58890456 108.5024694 19.87335205 108.52787781 C17.2728397 108.56446472 14.67397323 108.56953099 12.07324219 108.56762695 C11.31006054 108.58561749 10.54687889 108.60360804 9.76057053 108.62214375 C6.25616527 108.58778187 4.3239368 108.24974354 1.52380371 106.09094238 C-0.65445849 101.67247109 -0.52812325 97.84212136 -0.45410156 92.97729492 C-0.45468567 91.97194702 -0.45526978 90.96659912 -0.45587158 89.93078613 C-0.45308882 86.61366029 -0.42198672 83.29743728 -0.390625 79.98046875 C-0.38316332 77.67833446 -0.37747004 75.37619382 -0.37347412 73.0740509 C-0.3582122 67.01911844 -0.318925 60.96457066 -0.2746582 54.90979004 C-0.22651799 47.64276326 -0.2081742 40.37560775 -0.18484497 33.1084671 C-0.14607494 22.07204398 -0.06942386 11.03646466 0 0 Z " fill="#000000" transform="translate(35,134)"/>
<path d="M0 0 C6.75497028 5.62085155 11.62725928 12.31393537 13.27734375 21.08203125 C13.44700896 23.26542784 13.54336305 25.45504581 13.58984375 27.64453125 C13.64591797 29.34802734 13.64591797 29.34802734 13.703125 31.0859375 C13.47423122 36.37857955 11.23422186 41.22439515 9.27734375 46.08203125 C10.1902417 46.09137695 11.10313965 46.10072266 12.04370117 46.11035156 C15.44550423 46.15448306 18.84606542 46.21614525 22.24731445 46.28955078 C23.71659825 46.31769736 25.1860317 46.33894334 26.65551758 46.35302734 C28.77372489 46.37454655 30.89014528 46.42123459 33.0078125 46.47265625 C34.28035889 46.49360352 35.55290527 46.51455078 36.86401367 46.53613281 C40.27734375 47.08203125 40.27734375 47.08203125 45.27734375 51.08203125 C45.27734375 67.91203125 45.27734375 84.74203125 45.27734375 102.08203125 C9.63734375 102.08203125 -26.00265625 102.08203125 -62.72265625 102.08203125 C-62.86703125 88.57265625 -63.01140625 75.06328125 -63.16015625 61.14453125 C-63.22388428 56.89328369 -63.2876123 52.64203613 -63.35327148 48.26196289 C-63.3848877 43.03405762 -63.3848877 43.03405762 -63.39076233 40.57957458 C-63.40144791 38.88067254 -63.42593629 37.1818206 -63.46168518 35.48326111 C-63.78377343 19.3609806 -63.78377343 19.3609806 -59.40258789 13.65014648 C-58.20790683 12.42867298 -56.98151984 11.23724674 -55.72265625 10.08203125 C-54.5286085 8.71271345 -53.34033801 7.33831771 -52.16015625 5.95703125 C-38.73052858 -7.18293779 -15.72540916 -11.07772726 0 0 Z M-35.72265625 13.08203125 C-36.38910156 13.45972656 -37.05554688 13.83742188 -37.7421875 14.2265625 C-48.60258038 21.31687817 -54.386869 34.31589487 -58.72265625 46.08203125 C-58.72265625 46.41203125 -58.72265625 46.74203125 -58.72265625 47.08203125 C-52.88774507 47.1813684 -47.05333288 47.25372061 -41.21777344 47.30175781 C-39.23526426 47.32179622 -37.25281362 47.34903478 -35.27050781 47.38378906 C-32.41065984 47.43265079 -29.55159744 47.45507798 -26.69140625 47.47265625 C-25.37529358 47.50362396 -25.37529358 47.50362396 -24.03259277 47.53521729 C-17.51217416 47.53756175 -12.08978417 46.19626792 -7.19567871 41.66973877 C-2.98426744 36.90477652 -1.2172348 32.58974175 -1.41015625 26.19921875 C-2.18838169 20.92674139 -4.7191755 16.67197271 -8.72265625 13.20703125 C-17.52560733 6.97160757 -26.55248447 7.70875129 -35.72265625 13.08203125 Z " fill="#000000" transform="translate(196.72265625,19.91796875)"/>
<path d="M0 0 C6.52384344 4.83733902 12.52862728 10.76921608 16.5234375 17.87109375 C16.8840349 20.77415216 17.03258344 23.28009304 16.97753906 26.17138672 C16.9780212 26.99482134 16.97850334 27.81825596 16.97900009 28.66664314 C16.97602898 31.31597164 16.94563773 33.96415578 16.9140625 36.61328125 C16.90817682 38.25528421 16.90409891 39.89729467 16.90185547 41.53930664 C16.8809365 47.60835059 16.82509126 53.67723357 16.7734375 59.74609375 C16.6909375 73.31734375 16.6084375 86.88859375 16.5234375 100.87109375 C-19.1165625 100.87109375 -54.7565625 100.87109375 -91.4765625 100.87109375 C-91.4765625 84.04109375 -91.4765625 67.21109375 -91.4765625 49.87109375 C-86.23872173 45.68082114 -85.45618561 45.36458549 -79.20703125 45.26171875 C-78.52602859 45.2451825 -77.84502594 45.22864624 -77.14338684 45.21160889 C-74.98351879 45.16330072 -72.82435375 45.14179865 -70.6640625 45.12109375 C-69.19332433 45.09291931 -67.72261867 45.06298981 -66.25195312 45.03125 C-62.66030836 44.95754979 -59.06879679 44.9078689 -55.4765625 44.87109375 C-55.75951172 44.15824219 -56.04246094 43.44539063 -56.33398438 42.7109375 C-60.36611839 32.18061914 -61.40368491 22.12535337 -56.92578125 11.47265625 C-51.79895044 2.2692349 -44.56611685 -3.47799521 -34.62890625 -6.734375 C-22.22185319 -9.00862611 -10.57160252 -6.68645522 0 0 Z M-40.8515625 15.43359375 C-44.35122344 20.68308516 -45.30352032 24.5862143 -44.4765625 30.87109375 C-42.38284404 37.53292521 -38.52661204 41.69609347 -32.38989258 44.99169922 C-28.18031299 46.26236927 -24.1730742 46.11695356 -19.80078125 46.06640625 C-18.8756221 46.06357635 -17.95046295 46.06074646 -16.99726868 46.05783081 C-14.05273308 46.04666767 -11.10850562 46.02157012 -8.1640625 45.99609375 C-6.16341586 45.98605896 -4.16276444 45.97693398 -2.16210938 45.96875 C2.733191 45.94674097 7.62826207 45.91223766 12.5234375 45.87109375 C11.7698966 43.82557892 11.00777267 41.78322502 10.2421875 39.7421875 C9.81873047 38.60450928 9.39527344 37.46683105 8.95898438 36.29467773 C6.76292878 31.05738393 3.80030275 26.48918757 0.5234375 21.87109375 C0.11351562 21.27554688 -0.29640625 20.68 -0.71875 20.06640625 C-5.09951908 14.23545155 -12.31275673 9.3038549 -19.4765625 7.87109375 C-28.7583699 6.82545804 -34.48682976 8.56638211 -40.8515625 15.43359375 Z " fill="#000000" transform="translate(105.4765625,21.12890625)"/>
<path d="" fill="#000000" transform="translate(0,0)"/>
<path d="" fill="#000000" transform="translate(0,0)"/>
</svg>
