<?xml version="1.0" standalone="no"?>
<!DOCTYPE svg PUBLIC "-//W3C//DTD SVG 20010904//EN"
 "http://www.w3.org/TR/2001/REC-SVG-20010904/DTD/svg10.dtd">
<svg version="1.0" xmlns="http://www.w3.org/2000/svg"
 width="512.000000pt" height="512.000000pt" viewBox="0 0 512.000000 512.000000"
 preserveAspectRatio="xMidYMid meet">

<g transform="translate(0.000000,512.000000) scale(0.100000,-0.100000)"
fill="#000000" stroke="none">
<path d="M3102 3598 c-25 -14 -316 -294 -699 -673 -362 -358 -719 -710 -793
-782 l-135 -131 -345 359 c-389 404 -403 415 -510 407 -148 -11 -236 -168
-169 -300 17 -34 621 -672 857 -905 84 -84 169 -100 264 -52 22 11 416 393
922 894 970 959 923 908 914 1020 -9 109 -95 185 -209 185 -39 0 -68 -7 -97
-22z"/>
<path d="M4409 3607 c-19 -7 -45 -20 -58 -29 -12 -8 -376 -365 -808 -792
l-787 -777 -45 45 c-67 64 -102 79 -176 74 -69 -4 -130 -36 -162 -84 -45 -70
-45 -177 1 -242 12 -18 77 -88 143 -156 107 -111 126 -126 174 -140 59 -18
103 -14 160 15 20 10 429 407 917 889 735 727 884 878 898 915 23 62 15 142
-19 194 -50 76 -161 117 -238 88z"/>
</g>
</svg>
