<?xml version="1.0" standalone="no"?>
<!DOCTYPE svg PUBLIC "-//W3C//DTD SVG 20010904//EN"
 "http://www.w3.org/TR/2001/REC-SVG-20010904/DTD/svg10.dtd">
<svg version="1.0" xmlns="http://www.w3.org/2000/svg"
 width="800.000000pt" height="800.000000pt" viewBox="0 0 800.000000 800.000000"
 preserveAspectRatio="xMidYMid meet">

<g transform="translate(0.000000,800.000000) scale(0.100000,-0.100000)"
fill="#000000" stroke="none">
<path d="M3878 7800 c-167 -30 -331 -124 -435 -248 -46 -56 -113 -184 -419
-801 -200 -404 -384 -762 -409 -796 -85 -120 -214 -215 -359 -265 -66 -22
-129 -32 -1013 -160 -733 -105 -778 -114 -890 -182 -335 -202 -451 -646 -256
-977 50 -84 116 -151 728 -742 286 -276 538 -524 559 -553 98 -129 153 -308
143 -465 -3 -47 -65 -426 -138 -841 -115 -655 -133 -770 -133 -865 0 -127 17
-203 70 -311 88 -179 249 -311 454 -375 61 -19 97 -24 195 -24 196 0 147 -21
1010 430 738 385 752 392 848 415 106 26 228 26 334 0 97 -23 139 -44 963
-474 360 -189 637 -327 685 -343 68 -22 98 -26 205 -27 105 -1 137 3 200 23
206 64 367 197 454 375 52 107 70 184 70 311 0 96 -17 206 -137 894 -80 456
-137 811 -137 848 0 142 58 314 146 429 21 28 271 275 554 548 736 710 731
704 791 880 69 200 39 440 -78 616 -101 153 -251 261 -420 304 -32 8 -407 65
-833 126 -426 61 -802 117 -835 125 -154 38 -317 149 -410 280 -25 35 -207
389 -404 786 -259 524 -373 743 -410 792 -88 115 -213 199 -366 246 -79 25
-248 36 -327 21z m666 -2325 c239 -369 621 -640 1036 -735 52 -11 334 -56 627
-98 303 -44 532 -81 531 -87 0 -5 -170 -173 -377 -372 -207 -200 -407 -398
-444 -440 -244 -278 -386 -630 -412 -1018 -9 -146 5 -259 105 -842 50 -289 90
-526 88 -528 -2 -1 -122 61 -268 137 -567 297 -769 398 -869 433 -127 43 -312
82 -443 91 l-98 7 1 2241 1 2241 241 -485 c133 -267 260 -512 281 -545z"/>
</g>
</svg>
